<?xml version="1.0" encoding="UTF-8"?>
<svg width="14px" height="14px" viewBox="0 0 14 14" version="1.1" xmlns="http://www.w3.org/2000/svg" xmlns:xlink="http://www.w3.org/1999/xlink">
    <!-- Generator: Sketch 53 (72520) - https://sketchapp.com -->
    <title>icon/formatting/edit/16</title>
    <desc>Created with Sketch.</desc>
    <defs>
        <path d="M1.5,13.5 L14.5,13.5 L14.5,14.5 L1.5,14.5 L1.5,13.5 Z M12.70705,4.5 C13.0971895,4.10938024 13.0971895,3.47656976 12.70705,3.08595 L10.91405,1.29295 C10.5232254,0.903305789 9.89082459,0.903305789 9.5,1.29295 L2,8.79295 L2,12 L5.20705,12 L12.70705,4.5 Z M10.20655,1.9995 L12,3.79295 L10.5,5.29295 L8.70665,3.4996 L10.20655,1.9995 Z M3,11 L3,9.20705 L7.99965,4.2067 L9.79295,6 L4.79295,11 L3,11 Z" id="path-1"></path>
    </defs>
    <g id="页面-1" stroke="none" stroke-width="1" fill="none" fill-rule="evenodd">
        <g id="智能匹配" transform="translate(-996.000000, -343.000000)">
            <g id="icon/formatting/edit/16" transform="translate(995.000000, 342.000000)">
                <mask id="mask-2" fill="white">
                    <use xlink:href="#path-1"></use>
                </mask>
                <use id="icon-color" fill="#8C8C8C" fill-rule="evenodd" xlink:href="#path-1"></use>
            </g>
        </g>
    </g>
</svg>